<?xml version="1.0" encoding="UTF-8"?>
<svg id="Layer_1" data-name="Layer 1" xmlns="http://www.w3.org/2000/svg" viewBox="0 0 840.06 672">
  <defs>
    <style>
      .cls-1 {
        fill: #0452ae;
      }
    </style>
  </defs>
  <path class="cls-1" d="M.68,672l-.68-1.16,133.12-392.6c.4-.7.68-.44,1.26-.3,1.18.3,3.88,2.15,5.14,2.89,36.43,21.32,71.59,44.99,107.94,66.48l2.02.34,43.08-123.91,127.44,77.47,127.89-77.4,43.05,123.93c.98.07,13.87-7.9,15.89-9.13,32.8-19.94,65.18-40.66,98.17-60.25l2.08-.07,132.99,393.71H.68ZM250.13,349.22l-64.72,188.7,1.06,1.28,466.69.15,1.44-1.08-64.41-188.87-170.15,102.73-169.91-102.92Z"/>
  <path class="cls-1" d="M228.17,0h383.64c.89.27,1.24,1.16,1.6,1.9,1.39,2.85,2.65,7.53,3.77,10.73,15.9,45.52,30.25,91.6,46.35,137.06l.02,2.28-115.1,70.35-31.58-89.4-193.34-.08-30.84,88.59-.71.82-1.33-.05-114.23-70.23.14-2.16c15.36-44.07,29.49-88.57,44.74-132.67,1.51-4.36,2.99-9.09,4.64-13.35.44-1.13,1.07-3.42,2.22-3.77Z"/>
</svg>