<?xml version="1.0" encoding="UTF-8"?>
<svg id="Layer_1" data-name="Layer 1" xmlns="http://www.w3.org/2000/svg" viewBox="0 0 1249.29 161.87">
  <defs>
    <style>
      .cls-1 {
        fill: #f9a51f;
      }

      .cls-2 {
        fill: #00844b;
      }

      .cls-3 {
        fill: #2f6884;
      }
    </style>
  </defs>
  <path class="cls-3" d="M314.27,0c5.47.74,11.88,5.87,14.77,10.45,16.02,30.49,36.9,59.65,52.68,90.1,4.21,8.12,6.52,16,5.8,25.31-.98,12.75-9.24,23.82-14.22,35.17L282.87,0h31.4Z"/>
  <path class="cls-1" d="M454.1,0l-29.62,57.6c-3.13,5.44-13.88,12.71-20.03,12.71h-30.33l29.61-58.15c3.59-4.89,13.37-12.17,19.5-12.17h30.86Z"/>
  <path class="cls-2" d="M161.56,0h78.09c39.96,2.97,53.9,41.28,32.47,72.72l-5.88,5.11c25.43,6.28,32.84,41.75,19,61.69-10.04,14.46-28.86,19.75-45.55,21.54l-78.12-.02V0ZM191.62,136.34h44.28c4.55,0,14.75-3.91,18.47-6.76,10.94-8.37,9.2-26.96-2.15-34.26-11.25-7.23-23.16-3.8-35.11-5.14-13.96-1.57-13.03-22.87.05-24.65,11.18-1.52,25.05,3.03,33.49-7.84,11.2-14.43-2.63-33-19.04-33h-39.99v111.65Z"/>
  <path class="cls-2" d="M0,0h69.51c95.36,4.05,106.73,140.02,12.19,159.26-25.25,5.14-54.02.84-79.85,2.33l-1.85-.83V0ZM30.6,136.34c24.43-.5,49.63,3.96,69.52-13.4,25.12-21.94,23.68-70.09-4.63-88.8-19.31-12.77-42.94-8.84-64.9-9.44v111.65Z"/>
  <g>
    <path class="cls-2" d="M938.32,104.14c-.59-14.99-19.99-17.34-31.68-16.39-6.86.55-25.48,8.84-24.28-4.12.73-7.79,11.31-10.25,17.77-11.34,18.67-3.13,48.13-.19,54.06,21.57,2.63,9.66,2.33,47.28,1.32,58.41-.59,6.48-6.16,8.51-12.01,6.71-4.46-1.37-4.48-6.41-4.8-10.1-20.75,21.11-67.48,17.8-63.76-19.76,1.39-14.02,17.66-24.99,30.94-24.99h32.44ZM938.32,133.6v-13.42c-.47-.74-1.03-.97-1.86-1.12-3.46-.63-13.22-.26-17.18-.03-10.03.57-30.88,3.21-25.73,18.34,3.77,11.1,23.42,9.42,32.09,5.91,2.73-1.1,12-7.23,12.69-9.68Z"/>
    <path class="cls-2" d="M991.27,85.5c9.85-12.74,22.37-17.87,38.02-11.54,28.75,11.63,17.11,54.77,19.23,78.85-1.69,9.32-16.43,9.24-17.72-2.06-1.91-16.71,8.27-64.69-20.48-63.03-25.93,1.5-16.68,46.2-18.27,63.06-1.13,12-16.47,11.18-17.86,1.39v-69.31c-.19-1.58-3.06-2.01-3.98-4.27-.69-1.7-.66-3.25-.57-5.03h21.63v11.93Z"/>
    <path class="cls-2" d="M535.64,73.57h21.63v11.93c4.99-5.27,9.1-10.8,16.43-13.03,15.07-4.58,32.06,3.58,37.63,18.26,4.08,10.76,4.96,48.86,3.17,60.57-1.72,11.28-16.68,10.83-17.73-.52-1.62-17.49,8.25-64.72-21.2-63.05-24.99,1.42-15.83,47-17.55,63.03-1.05,9.79-11.74,11.75-17.21,4.53l-.7-71.63c-2.11-3.9-5.76-4.67-4.46-10.08Z"/>
    <path class="cls-2" d="M739.96,73.57v51.83c0,1.3,2.31,8.1,3.07,9.6,7.26,14.4,27.06,13.14,33.09-1.78.59-1.46,2.62-8.21,2.62-9.32v-50.34h17.9v79.42c0,2.69-3.64,5.9-6.39,6.29-8.52,1.2-10.86-3.5-11.13-11.13-7.07,11.91-24.34,13.74-36.38,9.52-30.57-10.72-18.19-50.23-20.62-74.8-2.68-3.08-5.67-3.89-4.53-9.3h22.37Z"/>
    <path class="cls-2" d="M660.76,71.55c7-.71,13.68-.05,20.28,2.4,7.1,2.63,20.99,11.15,14.08,20.02-6.31,8.09-12.68-2.04-17.8-4.37-2.25-1.03-7.73-2.59-10.1-2.63-9.96-.17-20.86,7.38-8.76,14.79,12.99,7.95,29.38,4.31,39.31,21.09,18.64,31.5-36.82,48.43-60.72,26.42-4.85-4.47-9.73-13.38-1.76-17.44,7.57-3.85,11.21,4.11,16.91,7.5,5.31,3.16,11.06,4.8,17.29,4.31,16.32-1.26,18.33-14.34,1.71-19.58-8.22-2.59-15.47-3.24-23.19-8.13-23.71-14.99-14.33-41.63,12.76-44.39Z"/>
    <path class="cls-2" d="M521.47,40.76c.17,1.94-.27,4.6-1.47,6.15-1.16,1.5-3.67,1.34-3.8,3.14v99.97c.13,1.8,2.65,1.64,3.8,3.14s1.64,4.21,1.47,6.15h-28.34c-.23-3.92,1.52-6.43,4.84-8.21l.43-101.07c-2.41-2.8-5.85-4.43-5.28-9.3h28.34Z"/>
    <path class="cls-2" d="M815.28,73.57h21.63v13.42l4.17-6.65c5.53-9.71,28.63-14.38,27.12,1.71-.95,10.12-11.48,5.9-18.65,9.75-17.64,9.48-10,46.67-12.23,63.09-4.21,7.34-17.01,5.91-17.56-3.4v-68.61c-2.59-3.1-5.17-4.51-4.48-9.32Z"/>
    <path class="cls-2" d="M1182.92,124.28c2.23,19.58,29.18,22.55,44.2,16.98,5.21-1.93,12.12-9.03,17.29-2.78,8.99,10.88-17.61,20.12-25.33,20.83-37.5,3.45-64.51-21.65-52.35-59.81,14.24-44.69,82.56-33.41,82.56,10.97v12.68l-1.12,1.12h-65.25ZM1231.39,108.62c-2.85-28.03-46.32-28.63-49.22,0h49.22Z"/>
    <path class="cls-2" d="M1109.69,71.55c8.58-.77,17.63-.25,25.7,2.94,6.77,2.67,17.61,9.37,11.35,17.7-4.6,6.13-12.81-.59-17.86-2.24-17.17-5.62-36.73.05-41.52,18.92-7,27.55,18.34,42.91,42.81,33.87,5.62-2.08,12.59-8.86,17.29-1.28,7.82,12.6-17.53,19.51-26.03,20.13-66.3,4.83-71.41-84.68-11.74-90.04Z"/>
  </g>
</svg>