<?xml version="1.0" encoding="UTF-8"?>
<svg id="Layer_1" data-name="Layer 1" xmlns="http://www.w3.org/2000/svg" viewBox="0 0 454.1 257.72">
  <defs>
    <style>
      .cls-1 {
        fill: #f9a51f;
      }

      .cls-2 {
        fill: #00844b;
      }

      .cls-3 {
        fill: #2f6884;
      }
    </style>
  </defs>
  <path class="cls-3" d="M314.27,0c5.47.74,11.88,5.87,14.77,10.45,16.02,30.49,36.9,59.65,52.68,90.1,4.21,8.12,6.52,16,5.8,25.31-.98,12.75-9.24,23.82-14.22,35.17L282.87,0h31.4Z"/>
  <path class="cls-1" d="M454.1,0l-29.62,57.6c-3.13,5.44-13.88,12.71-20.03,12.71h-30.33l29.61-58.15c3.59-4.89,13.37-12.17,19.5-12.17h30.86Z"/>
  <path class="cls-2" d="M161.56,0h78.09c39.96,2.97,53.9,41.28,32.47,72.72l-5.88,5.11c25.43,6.28,32.84,41.75,19,61.69-10.04,14.46-28.86,19.75-45.55,21.54l-78.12-.02V0ZM191.62,136.34h44.28c4.55,0,14.75-3.91,18.47-6.76,10.94-8.37,9.2-26.96-2.15-34.26-11.25-7.23-23.16-3.8-35.11-5.14-13.96-1.57-13.03-22.87.05-24.65,11.18-1.52,25.05,3.03,33.49-7.84,11.2-14.43-2.63-33-19.04-33h-39.99v111.65Z"/>
  <path class="cls-2" d="M0,0h69.51c95.36,4.05,106.73,140.02,12.19,159.26-25.25,5.14-54.02.84-79.85,2.33l-1.85-.83V0ZM30.6,136.34c24.43-.5,49.63,3.96,69.52-13.4,25.12-21.94,23.68-70.09-4.63-88.8-19.31-12.77-42.94-8.84-64.9-9.44v111.65Z"/>
  <g>
    <path class="cls-2" d="M267.37,223.05c-.35-9-12-10.41-19.02-9.84-4.12.33-15.3,5.31-14.58-2.47.44-4.68,6.79-6.16,10.67-6.81,11.21-1.88,28.9-.12,32.46,12.95,1.58,5.8,1.4,28.39.79,35.07-.35,3.89-3.7,5.11-7.21,4.03-2.68-.82-2.69-3.85-2.88-6.07-12.46,12.67-40.52,10.69-38.28-11.86.83-8.42,10.61-15.01,18.58-15.01h19.48ZM267.37,240.74v-8.06c-.28-.44-.62-.58-1.12-.67-2.08-.38-7.94-.15-10.32-.02-6.02.34-18.54,1.93-15.45,11.01,2.27,6.66,14.06,5.66,19.27,3.55,1.64-.66,7.2-4.34,7.62-5.81Z"/>
    <path class="cls-2" d="M299.16,211.86c5.92-7.65,13.43-10.73,22.83-6.93,17.27,6.98,10.28,32.89,11.55,47.35-1.01,5.6-9.87,5.55-10.64-1.24-1.15-10.04,4.97-38.85-12.3-37.85-15.57.9-10.02,27.74-10.97,37.86-.68,7.21-9.89,6.71-10.72.84v-41.62c-.12-.95-1.84-1.21-2.39-2.56-.41-1.02-.4-1.95-.34-3.02h12.99v7.16Z"/>
    <path class="cls-2" d="M25.56,204.7h12.99v7.16c3-3.17,5.46-6.49,9.86-7.82,9.05-2.75,19.25,2.15,22.6,10.96,2.45,6.46,2.98,29.34,1.9,36.37-1.03,6.77-10.02,6.5-10.65-.31-.97-10.5,4.95-38.86-12.73-37.86-15,.85-9.51,28.22-10.54,37.85-.63,5.88-7.05,7.06-10.33,2.72l-.42-43.01c-1.26-2.34-3.46-2.8-2.68-6.06Z"/>
    <path class="cls-2" d="M148.26,204.7v31.12c0,.78,1.39,4.86,1.85,5.77,4.36,8.65,16.25,7.89,19.87-1.07.35-.88,1.57-4.93,1.57-5.59v-30.23h10.75v47.69c0,1.62-2.19,3.54-3.84,3.78-5.11.72-6.52-2.1-6.69-6.68-4.24,7.15-14.62,8.25-21.84,5.72-18.36-6.44-10.92-30.16-12.38-44.92-1.61-1.85-3.4-2.33-2.72-5.58h13.43Z"/>
    <path class="cls-2" d="M100.7,203.48c4.2-.43,8.22-.03,12.18,1.44,4.26,1.58,12.61,6.7,8.45,12.02-3.79,4.86-7.62-1.22-10.69-2.62-1.35-.62-4.64-1.56-6.07-1.58-5.98-.1-12.53,4.43-5.26,8.88,7.8,4.77,17.64,2.59,23.61,12.67,11.19,18.91-22.11,29.08-36.46,15.86-2.92-2.68-5.84-8.03-1.06-10.47s6.73,2.47,10.15,4.51c3.19,1.9,6.64,2.88,10.38,2.59,9.8-.76,11.01-8.61,1.03-11.76-4.93-1.56-9.29-1.95-13.93-4.88-14.24-9-8.61-25,7.66-26.66Z"/>
    <path class="cls-2" d="M17.05,184.99c.1,1.17-.16,2.76-.88,3.7s-2.21.81-2.28,1.89v60.03c.08,1.08,1.59.99,2.28,1.89s.99,2.53.88,3.7H.04c-.14-2.35.91-3.86,2.91-4.93l.26-60.69c-1.45-1.68-3.51-2.66-3.17-5.58h17.02Z"/>
    <path class="cls-2" d="M193.48,204.7h12.99v8.06l2.5-3.99c3.32-5.83,17.19-8.64,16.28,1.03-.57,6.08-6.9,3.54-11.2,5.85-10.59,5.69-6,28.02-7.34,37.88-2.53,4.41-10.21,3.55-10.55-2.04v-41.2c-1.55-1.86-3.1-2.71-2.69-5.59Z"/>
    <path class="cls-2" d="M414.24,235.15c1.34,11.76,17.52,13.54,26.54,10.2,3.13-1.16,7.28-5.42,10.38-1.67,5.4,6.53-10.57,12.08-15.21,12.51-22.52,2.07-38.74-13-31.44-35.91,8.55-26.83,49.58-20.06,49.58,6.59v7.61l-.67.67h-39.18ZM443.35,225.74c-1.71-16.83-27.82-17.19-29.55,0h29.55Z"/>
    <path class="cls-2" d="M370.27,203.49c5.15-.46,10.58-.15,15.43,1.76,4.06,1.6,10.57,5.62,6.81,10.63-2.76,3.68-7.69-.35-10.72-1.35-10.31-3.37-22.06.03-24.93,11.36-4.2,16.54,11.01,25.76,25.71,20.34,3.38-1.25,7.56-5.32,10.38-.77,4.69,7.56-10.53,11.71-15.63,12.09-39.81,2.9-42.88-50.85-7.05-54.07Z"/>
  </g>
</svg>