<?xml version="1.0" encoding="UTF-8"?>
<svg id="Layer_1" data-name="Layer 1" xmlns="http://www.w3.org/2000/svg" viewBox="0 0 260.07 255.48">
  <defs>
    <style>
      .cls-1 {
        fill: #5f5f5f;
      }

      .cls-2 {
        fill: #c49332;
      }

      .cls-3 {
        fill: #2b4563;
      }

      .cls-4 {
        fill: #fafaf9;
      }

      .cls-5 {
        fill: #3375ab;
      }

      .cls-6 {
        fill: #d9a43a;
      }
    </style>
  </defs>
  <path class="cls-3" d="M213.9,235.12c-.03-10.64.03-21.29.02-31.94-.07-56.83-1.18-114.14-.42-171.1.15-.11.26-.28.4-.4.67.41.4,1.5.41,2.18.72,67.03-.22,134.34-.41,201.26Z"/>
  <g>
    <path class="cls-5" d="M34.71,226.39c44.79-.03,89.6.03,134.39,0v9.32c0,8.04,8.67,16.58,16.14,18.84l-1.39.79c-55.64-.33-111.43.67-166.99-.51-5.37-1.57-10.52-4.98-13.56-9.68-.62-.96-3.3-6.74-3.3-7.46v-11.3c11.56,0,23.15,0,34.71,0Z"/>
    <path class="cls-5" d="M233.27.36c4.4.08,7.45-.2,11.7,1.39,11.95,4.46,16.92,17.71,14.51,29.52-13.37.27-26.78-.27-40.15,0-.82.02-1.55.35-2.36.38-1.07.04-1.85-.95-3.07.04-.14.12-.26.28-.4.4.13-9.75-.68-17.94,7.05-25.4,3.53-3.41,8.15-4.82,12.73-6.33Z"/>
    <rect class="cls-3" x="58.5" y="127.65" width="131.18" height="3.97"/>
    <rect class="cls-3" x="58.92" y="141.13" width="130.76" height="3.97"/>
    <path class="cls-3" d="M156.18,170.48l-6.66,16.25,10.7-3.95-2.82,7.93,9.28-3.57-1.2,6.34,17.25-7.45,1.27-.05.83,3.11-23.6,9.94c-.68.07-.65.03-.61-.6.11-1.87,1.04-3.83,1.02-5.74-1.37.99-5.06,1.64-6.05,2.78-.83.96-2.36,6.68-2.89,6.76-.7.11-2.95-.5-2.97-1.39-.05-2.15,3.82-8.87,4.4-11.57.18-.86-.43-.61-.89-.48-1.79.51-3.9,1.94-5.83,2.4-2.14,4.49-3.8,9.25-6.07,13.67-.19.37.12.64-.68.5-3.22-3.21-7.47-5.83-10.71-8.91-.32-.3-1.57-1.31-1.2-1.78l16.05-6.04,4.94-11.8-14.31,5.56c-.27,0-1.34-3.17-1-3.56l21.77-8.35ZM142.46,193.08c-1.15.37-7.49,2.25-7.24,3.34.12.52,4.49,4.09,4.82,3.79l2.42-7.14Z"/>
    <path class="cls-3" d="M151.74,154.62c1.49.73,1.13,3.42-.59,3.19H62.74c-.5-.14-2.89-.33-2.99-.44-.08-.08-.11-2.28-.02-2.36.13-.12,1.61.21,2.02-.4h90Z"/>
    <rect class="cls-3" x="123.09" y="207.36" width="66.19" height="3.57"/>
    <path class="cls-1" d="M61.75,154.62c-.41.61-1.88.28-2.02.4-.09.08-.06,2.27.02,2.36.1.11,2.49.3,2.99.43h88.42c1.71.23,2.08-2.46.59-3.19l1.61-.4v4.36s-94.44,0-94.44,0v-4.36s2.83.4,2.83.4Z"/>
    <path class="cls-4" d="M142.46,193.08l-2.42,7.14c-.34.3-4.7-3.27-4.82-3.79-.25-1.09,6.09-2.97,7.24-3.34Z"/>
    <path class="cls-4" d="M233.27.36c-4.58,1.51-9.2,2.92-12.73,6.33-7.72,7.46-6.92,15.65-7.05,25.4-.76,56.96.35,114.26.42,171.1.01,10.65-.04,21.3-.02,31.94-1.47,13.39-14.98,23.56-28.65,19.43-7.47-2.25-16.14-10.79-16.14-18.84v-9.32c-44.79.03-89.6-.03-134.39,0l-.02-203.65C35.48,10.7,43.83,1.41,56.28.34c58.96.87,118.04-1.11,176.98.02ZM123.9,112.58c1.94.02,12.6-5.97,14.9-7.37,10.65-6.47,21.41-15.67,23.45-28.51v-39.63s-36.33-13.53-36.33-13.53l-2.42-.19c-12.41,4.57-25.03,8.9-37.16,14.05-.79.95.03,2.05.05,3.18.2,11.6-1.15,25.7-.02,36.89,1.35,13.3,17.85,24.92,28.78,30.81,1.22.66,8.05,4.29,8.75,4.29ZM58.5,127.65v3.97h131.18v-3.97H58.5ZM189.68,141.13H58.92v3.97h130.76v-3.97ZM61.75,154.62l-2.83-.4v4.36h94.44v-4.36s-1.61.4-1.61.4H61.75ZM156.18,170.48l-21.77,8.35c-.34.39.73,3.57,1,3.56l14.31-5.56-4.94,11.8-16.05,6.04c-.37.47.89,1.48,1.2,1.78,3.23,3.09,7.48,5.7,10.71,8.91.8.14.49-.13.68-.5,2.27-4.42,3.93-9.18,6.07-13.67,1.93-.46,4.04-1.89,5.83-2.4.46-.13,1.07-.38.89.48-.58,2.71-4.44,9.42-4.4,11.57.02.89,2.27,1.5,2.97,1.39.52-.08,2.06-5.8,2.89-6.76.99-1.14,4.68-1.79,6.05-2.78.02,1.91-.9,3.88-1.02,5.74-.04.63-.07.67.61.6l23.6-9.94-.83-3.11-1.27.05-17.25,7.45,1.2-6.34-9.28,3.57,2.82-7.93-10.7,3.95,6.66-16.25ZM101.26,192.39c0-11.67-9.63-21.13-21.51-21.13s-21.51,9.46-21.51,21.13,9.63,21.13,21.51,21.13,21.51-9.46,21.51-21.13ZM123.09,207.36v3.57h66.19v-3.57h-66.19Z"/>
    <g>
      <path class="cls-6" d="M123.49,23.36l.83,1.35-.03,42.27c-.8.77-4.21,4.87-4.99,4.73l-9.32-9.11c-.34-.31-.75-.44-1.21-.4-.73.07-6.34,5.61-6.25,6.11l16.12,15.93c.43.31.75.2,1.19,0,.32-.14,3.79-3.54,4.45-4.18l-.4,32.52c-.69,0-7.52-3.64-8.75-4.29-10.94-5.88-27.43-17.5-28.78-30.81-1.14-11.19.21-25.29.02-36.89-.02-1.14-.84-2.24-.05-3.18,12.14-5.15,24.75-9.48,37.16-14.05Z"/>
      <path class="cls-2" d="M123.49,23.36l2.42.19,36.34,13.53v39.63c-2.06,12.83-12.82,22.04-23.47,28.51-2.3,1.4-12.96,7.39-14.9,7.37l.4-32.52c8.2-7.85,15.98-16.19,24.19-24.05.07-.38-4.75-5.29-5.4-5.72-.38-.25-.65-.51-1.15-.33-5.88,5.67-11.75,11.36-17.64,17.01l.03-42.27-.83-1.35Z"/>
      <path class="cls-4" d="M124.3,80.06c-.66.63-4.13,4.03-4.45,4.18-.44.2-.76.31-1.19,0l-16.12-15.93c-.09-.51,5.52-6.04,6.25-6.11.46-.04.87.08,1.21.4l9.32,9.11c.78.14,4.19-3.96,4.99-4.73,5.89-5.65,11.76-11.34,17.64-17.01.5-.18.77.08,1.15.33.65.43,5.47,5.33,5.4,5.72-8.21,7.85-15.99,16.2-24.19,24.05Z"/>
    </g>
    <g>
      <path class="cls-6" d="M101.26,192.39c0,11.67-9.63,21.13-21.51,21.13s-21.51-9.46-21.51-21.13,9.63-21.13,21.51-21.13,21.51,9.46,21.51,21.13ZM67.86,193.81c.06.1.83.33,1.16.64,1.04.99,7.18,7.44,7.81,7.33l14.41-14.43c1.18-1.33-2.27-4.45-3.66-3.59l-11.1,11.3c-1.09-.74-4.66-5.16-5.65-5.16-.91,0-3.55,2.94-2.97,3.92Z"/>
      <path class="cls-4" d="M67.86,193.81c-.58-.97,2.06-3.92,2.97-3.92.99,0,4.56,4.42,5.65,5.16l11.1-11.3c1.39-.85,4.84,2.26,3.66,3.59l-14.41,14.43c-.63.11-6.77-6.34-7.81-7.33-.33-.31-1.1-.54-1.16-.64Z"/>
    </g>
  </g>
</svg>