<?xml version="1.0" encoding="UTF-8"?>
<svg id="Layer_1" data-name="Layer 1" xmlns="http://www.w3.org/2000/svg" viewBox="0 0 1069.45 682.67">
  <defs>
    <style>
      .cls-1 {
        fill: #dbdddf;
      }

      .cls-2 {
        fill: #304a64;
      }

      .cls-3 {
        fill: #606060;
      }

      .cls-4 {
        fill: #f9f9f7;
      }

      .cls-5 {
        fill: #3272a7;
      }

      .cls-6 {
        fill: #95989f;
      }
    </style>
  </defs>
  <path class="cls-6" d="M250.52,672.49c-.59,3.21,1.61,2.04,3.66,2.12,7.87.3,14.1-2.21,21.8-2.12h563.28c6.31-1.08,15.12,4.65,20.15,0,11.33,2.21,29.87,1.66,41.37,0-.59,3.21,1.62,2.04,3.66,2.12,5.94.23,11.53-.92,17.56-1.06,49.08-1.15,98.36.86,147.45,0l-1,6.97c-5.52-.25-12.55,1.52-17.62,1.56-213.53,1.86-426.82-1.21-639.56-1.14-125.2.04-252.08,3.54-377.65,0-4.97-.14-30.57.86-32.45-.43-2.93-2.01.06-7.62,3.71-7,62.04.98,124.2-1.14,186.22.05,6.24.12,13.32,1.65,19.09,1.06,2.04-.21,2.42.76,2.12-2.12,12.22,1.77,25.94,1.66,38.19,0Z"/>
  <g>
    <path class="cls-2" d="M191.12,673.55c.17-2.9-1.64-2.64-3.41-3.49-26.76-13.01-44.54-26.76-58.67-53.77-13.36-25.53-15.5-52.4-11.12-80.64h-45.08c-.43,0-4.78-1.64-5.36-2.07-5.02-3.73-1.22-13.01.05-18.09,7.36-29.2,20.22-56.97,34.43-83.33.41-2.26-.31-1.21-1.49-1.56-4.13-1.21-18.49-3.8-20.21-7.39s-.67-26.66,1.67-30.16c1.77-2.65,6.28-1.8,8.46-4.26,4.64-5.25,1.47-13.86,10.88-17.77,15.52-6.44,38.35-2.64,54.38-7.15,8.91-10.25,29.35-18.97,35.88-29.89,1-1.67,5.56-11.62,4.87-12.58-.33-.47-6.22-1.06-9.35-6.05-4.64-7.41-11.16-45.07-11.83-55-.86-12.65.78-24.65,16.48-24.95,17.24-.33,39.18,3.62,57.19,4.32,23.94.94,48.33.97,72.13-.09,5.82-.26,11.73.29,17.55.03-5.15-13.78-14.46-25.73-19.13-39.73-21.11-63.22,30.67-121.29,94.96-116.18,32.69,2.6,55.72,25.97,72.57,51.54,8.74,13.28-10.08,16.25-17.39,21.64-26.25,19.35,3.21,45.69-7.02,69.36-2.12,4.9-6.53,7.61-8.37,12.32h51.45c6.35,0,16.02,9.37,17.26,15.62,1.38,6.95,1.64,21.13,1.35,28.45-.13,3.3-.8,12.83-1.58,15.39-1.52,4.9-9.62,8.08-14.38,8.44,2.99,8.29,7.34,14.39,1.07,22.81-3.91,5.25-21.21,15.46-27.6,21.19-36.15,32.43-53.03,87.74-19.05,128.34,26.86,32.09,61.02,23.58,98.05,22.79,36.39-.78,89.61,5.27,115.16-24.86,5.6-6.6,21.95-34.68,21.23-42.47-.16-1.77-5.98-5.54-7.92-8.02-7.4-9.45-9.87-30.03-11.96-42.14-3.07-17.78-7.24-40.52-8.66-58.17-1.68-20.82,2.29-36.33,19.05-49.63,3.81-3.02,13.61-7.31,15.84-9.63.91-.95,1.37-1.56.89-2.93-6.3-15.93-12.3-31.99-17.57-48.3-2.81-8.7-4.25-9.77-7.93-17.54-2.34-4.94-14.03-36.24-15.68-37.41-11.95-.61-43.37,19.52-45.68-3.08-2.16-21.1,24.67-15.73,36.06-22.33,1.64-.95,4.78-6.14,7.56-8.35,6.65-5.28,16.23-7.87,23.38-12.69,1.79-1.21,12.14-9.8,12.34-10.87-2.54-17.33-1.9-36.75-5.18-53.84-2.25-11.71-6.65-11.64-17.91-11.27.26,7.22-5.73,31.89-14.31,31.94-3.07.02-4.22-1.84-5.3-4.36-4.32-10.02-4.01-34.95-2.51-45.99,5.81-42.61,23.16-5.87,22.12,14.18,9.25-.68,18.18-.41,21.79,9.51l5.81,54.14c4.62.19,7.47-3.98,11.34-6.16,14.8-8.32,31.38-13.18,48.64-10.87,9,1.2,17.66,25.25,18.52,33.46,2.03,19.44-2.94,36.21-15.08,51.22-1.03.59-17.74.45-20.5.28-9.1-.58-28.96-8.63-25.94,7.38,21.24-5.52,11.52,6.33,16.2,13.5,2.12,3.26,7.29,6.84,10.86,13,19.01,32.74,31.26,78.4,51.61,108.57,12.44,18.45,34.58,17.86,40.69,43.11,1.32,5.46,2.82,22.03,1.35,26.88-.56,1.84-13.71,7.92-16.79,9.77-.6.36-4.09.98-2.09,2.63.87.72,17.98-7.06,21.18-7.98,48.69-13.89,111.01,1.06,141.54,43.09,3.12,4.29,14.39,22.68,14.3,26.97-.19,9.5-15.18,9.33-21.68,10.01-1.33.14-2.81,1.1-3.14,1.1h-25.99c-.38,1.77.56,2.15,1.61,3.17,2.97,2.89,8.7,5.89,12.2,9.02,55.21,49.37,49.25,137.75-9.63,181.34l-28.57,16.51c-6.03.14-11.61,1.29-17.56,1.06-2.04-.08-4.25,1.1-3.66-2.12,76.06-10.99,116.07-98.61,78.68-165.13-10.07-17.91-31.61-43.48-53.81-42.83-20.97.62-44.31,4.28-63.44,12.93-33.93,15.34-55.37,47.88-89.81,62.12-9.33,51.7,16.12,102.86,64.01,124.62,6.36,2.89,16.31,7,22.99,8.3-5.04,4.65-13.85-1.08-20.15,0,.55-2.5-1.25-2.24-2.78-3-18.34-9.09-33.93-19.87-46.46-36.34-19.63-25.79-27.51-59.03-22.9-91.14-11.12,1.68-21.97,5.79-33.46,4.3-7.92-1.03-7.24-10.01-6.36-16.02,5.29-36.34,36.12-94.41,63.15-119.3,1.33-1.23,13.28-9.53,11.68-11.12-.82-.81-17.58,10.31-20.06,11.22-16.09,7.38-18.63,25.18-25.7,40.07-26.85,56.55-52.56,109.29-123.39,114.23l-245.08-.04c-11.68-1.32-7.57-9-9.09-10.54-.27-.27-2.84.03-4.14-.6-3.82-1.86-6.1-15.98-9.05-19.62h-20.69l3.22,25.94c-.04,49.95-25.67,86.11-68.78,108.46-1.7.88-3.59.63-3.4,3.5-7.7-.1-13.92,2.42-21.8,2.12-2.05-.08-4.25,1.1-3.66-2.12,64.11-8.69,106.54-77.24,89.11-138.96h-38.19c15.58,40.9-4.78,87.93-47.19,100.79-61.78,18.74-113.57-40.76-91.77-99.73h-37.66c-1.56,0-3.53,14.05-3.7,16.46-4.08,56.36,31.98,111.17,89.09,121.45v2.12c-5.78.59-12.85-.94-19.09-1.06ZM661.94,5.45c-3.43-2-3.75,2.58-4.44,5.27-3.06,11.86-3.13,30.49-1.62,42.66.25,2.02,1.76,12.32,3.58,12.31,12.18-12.74,12.63-36.43,6.65-52.25-.45-1.19-3.78-7.77-4.17-7.99ZM745.91,161.19v-74.79c0-.66-1.58-1.47-2.55-1.54-2.93-.21-14.23,3.43-17.59,4.74-4.38,1.71-19.25,9.9-21.85,13.16-4.18,5.24,2.66,23.48-2.05,24.48-4.47.94-2.16-16.29-5.3-16.96-7.3,6.41-15.45,10.64-23.85,15.38,11.36,1.54,23.82,3.39,22.3,18.05-.3,2.85-4.51,11.78-7.45,8.99-1.28-1.21,2.57-5.46,2.96-7.1,3.51-14.97-10.27-16.9-21.58-14.13-1.43.35-3.05-.93-2.6,1.6,7.72,2.29,10.27,11.4,8.02,18.63-1.09,3.5-6.21,5.19-5.88,9.94,3,4.49,14.48,39.44,16.59,39.93,2.54.59,17.9-5.03,19.53-6.91,1.47-1.7,1.94-5.86,3.31-8.36,1.51-2.77,6.68-7.56,7.07-8.91.89-3.08-1.65-6.92-.68-11.2,2.85-12.57,22.87-5.18,31.61-5ZM749.09,84.81v76.38h13.79v-76.38h-13.79ZM478.58,134.66c-47.31-95.69-193.73-30.21-151.87,70.73,1.56,3.77,10.01,21.45,12.62,22.39,21.64,2.01,44.83,12.26,66.59,9.79,5.78-.66,11.51-3.93,12.22-10.06,2.59-22.15-14.39-38.43-3.24-60.52,10.09-19.99,43.31-29.04,63.67-32.33ZM766.06,154.82c12.11-15.29,12.92-41.44,3.73-58.36-.84-1.55-2.11-4.71-3.73-5.29v63.65ZM639.84,162.25c7.8-4.32,38.25-6.04,30.61-20.55-5.74-10.9-25.72,1.8-34.86,2.53,4.1,5.61,6.52,11.08,4.25,18.02ZM483.89,137.85c-23.08,3.08-69.5,15.46-69.03,45.08.26,16.08,18.41,44.29.03,56.18-7.52,4.86-19.3,3.58-27.77,2.41-14.74-2.04-30.27-7.44-44.91-9.21-2.81-.34-1.39,2.29-.33,3.53,2.24,2.64,23.58,7.67,28.47,8.66,17.05,3.43,46.21,9.54,56.94-7.84,13.21-21.4-13.5-47.07-.51-67.34,5.4-8.43,26.08-16.4,35.66-19.5,3.81-1.23,18.71-3.76,20.41-5.05s.9-4.85,1.03-6.92ZM623.19,148.78c-4.31,5.96.16,18.87,9.2,15.03,11.76-5-2.18-24.74-9.2-15.03ZM632.93,553.68h-247.16c-2.25,0-3.39,7.43,0,7.43h250.35c32.59,0,58.39-45.66,70.39-70.69,22.97-47.89,48.46-106.88,39.09-160.78-5.98-34.37-42.3-105.54-29.17-135.87,3.08-7.11,10.6-9.08,12-11.34,4.36-7.05-3.87-7.44-9.56-3.2-31.44,23.46,8.35,104.95,16.38,135.3,15.45,58.39-4.67,106.76-28.4,159.25-14.37,31.77-34.14,75.44-73.91,79.9ZM729.99,186.64c-14.48,3.93-13.23,27.78-11.39,39.51,10.67,68.03,47.14,95.96,27.01,175-9.14,35.89-39.95,110.31-63.86,137.69l-12.21,12.71c36.91-11.71,57.28-50.27,73.74-82.71,19.51-38.45,40.98-85.13,36.56-128.89-5.29-52.34-36.96-102.64-49.85-153.3ZM738.48,198.31c1.24,3.51,1.75,8.17,3.17,12.22,20.61,58.73,54.06,113.87,38.75,178.74l-6.38,22.26,61.07-35.6c-6.54-9.72-14.6-18.1-17.62-30.12-1.03-4.1-.93-13.6-2.06-15.97-.83-1.73-11.02-7.08-13.82-9.51-15.37-13.33-37.06-71.34-47.33-92.69-4.13-8.59-8.54-17.87-13.08-26.21-.92-1.7-2.33-2.53-2.69-3.12-.51-.85.36-4.01-2.11-4.24-1.15,2.46,2,3.94,2.11,4.24ZM703.48,224.3c-.79-7.52.58-16.21,0-23.87-4.51,2.03-13.79,3.96-13.86,10.04,2.25,6.51,16.56,51.39,19.13,53.18,1.31.91,2.93-.52,4.18-.74-1.5-12.26-8.16-26.4-9.45-38.6ZM186.57,240.97c-7.95,1.78-7.42,10.8-6.98,17.14.89,12.84,5.07,36.12,8.87,48.41,1.52,4.92,2.6,9.43,8.55,10.54,79.69-2.24,159.28-6.34,238.57-10.59,17.98-.96,36.18-.78,54.13-2.09,5.88-.43,18-.74,22.84-2.62,7.47-2.9,7.06-11.91,7.46-19.06.76-13.68,2.67-37.26-15.53-39.74-22.75-3.09-51.77,2.09-75.2-.07-23,20.77-54.33,3.54-79.59,1.05-24.19-2.39-55.14,1.74-80.65,1.1-14.63-.37-29.75-1.47-44.5-2.18-10.45-.5-28.38-4.04-37.98-1.89ZM715.14,267.26c-25.63,9.12-43.66,24.23-42.47,53.62.77,19.1,9.61,78.31,16.21,95.18,4.14,10.57,17.42,18.45,26.79,24.13,12.9-29.59,22.79-61.16,20.76-93.95-1.68-27.1-13.93-53.25-21.28-78.98ZM397.44,533.52c-8.05,1.2-18.69-.88-27.05,0l5.47,15.74c5.23,1.36,10.29.09,15.17.11,35.04.17,70.08-.22,105.12,0,41.62.27,95.26,5.4,135.72.04,48.78-6.46,64.97-65.54,82.06-103.64.07-1.4-10.62-10.63-13.42-5.93-4.65,7.81-7.24,17.75-12.08,26.1-27.34,47.06-79.83,38.83-127.66,39.94-42.51.99-81.02,9.32-107-32.93-25.85-42.03-11.75-91.56,22.7-123.51,6.02-5.58,28.85-20.35,30.85-25.36,2.2-5.5.66-10.68-4.37-13.82-3.97-2.48-10.6-1.82-15.38-1.69-27.45.76-56.1,4.07-83.71,5.4-57.29,2.75-114.57,4.2-171.85,7.43-7.65.43-26.25-1.72-31.35,3.95-3.09,3.44-3.88,8.91-6.13,12.67-4.72,7.89-25.79,19.94-34.18,27.34-30.18,26.61-57.05,68.64-72.61,105.6-7.73,18.36-13.49,37.53-18.56,56.81-.63,3.58,12.2,3.06,12.68,2.56.19-.19.01-3.83.47-5.36,33.78-112.31,142.13-197.4,262.85-174.69,81.5,15.33,100.85,92.43,67.5,161.33-1.93,3.98-8.92,17.61-11.47,20.07-.66.63-2.97,1.71-3.76,1.82ZM835.01,365.91c0-12.02-4.02-26.31-14.83-32.88-.16,7.28,2.13,14.36,5.11,20.87.57,1.24,7.5,14.61,9.72,12.01ZM87.15,530.34l309-1.28c5.43-1.59,18.55-33.35,20.6-39.87,30.63-97.46-39.11-145.96-129.63-137.06-89.1,8.76-156.62,68.49-190.6,148.85-1.74,4.11-11.59,27.1-9.37,29.36ZM148.68,370.17c-6.14.25-21.2-.92-25.48,3.68-8.86,15.85-17.55,32.15-24.46,48.84-.62,4.41,5.52,4.9,8.05,2.64,11.34-20.26,26.72-37.77,41.89-55.16ZM118.98,372.29c-1.41-1.25-15.94,1.88-18,3.73-2.91,2.62-3.95,11.73-7.61,15.73-4.37,4.78-8.44,1.68-9.39,10.76-.24,2.29-.35,17.64.15,18.41s9.31,3.07,10.37,2.17l24.49-50.81ZM732.23,540.84c7.73,2.33,16.54.28,24.32-1.44,41.91-9.26,63.11-45.12,99.66-63.71,39.55-20.11,80.66-12.53,122.41-17.62,2.73-.33,14.67-1.87,14.33-5.5-.11-1.12-7.32-14.9-8.56-16.96-28.83-47.77-94.67-64.18-145.94-47.7-52.37,16.83-80.55,64.98-97.85,114.3-4.34,12.37-9.71,25.3-8.35,38.63ZM803.72,398.8v1.06c.69-.35.69-.71,0-1.06ZM166.72,534.58c-.45,5.81-2.98,10.9-3.95,16.73-7.46,44.78,28.14,84.5,73.48,81.97,48.42-2.7,81.26-55.83,59.35-99.76h-19.62c11.67,20.06,11.94,43.87-2.74,62.5-18.35,23.28-53.37,26.13-75.77,7-19.73-16.86-23.78-46.7-9.53-68.43h-21.22ZM193.97,534.79c-19.59,22.67-9.37,59.23,16.9,71.8,45.23,21.63,89.34-31.67,59.81-71.48l-76.71-.32ZM667.94,551.56v1.06c.69-.35.69-.71,0-1.06Z"/>
    <g>
      <path class="cls-4" d="M87.15,530.34c-2.22-2.26,7.63-25.25,9.37-29.36,33.98-80.36,101.51-140.09,190.6-148.85,90.52-8.9,160.26,39.6,129.63,137.06-2.05,6.52-15.17,38.28-20.6,39.87l-309,1.28Z"/>
      <path class="cls-5" d="M397.44,533.52c.8-.12,3.11-1.19,3.76-1.82,2.55-2.46,9.54-16.09,11.47-20.07,33.35-68.9,14-146-67.5-161.33-120.73-22.71-229.07,62.38-262.85,174.69-.46,1.53-.28,5.16-.47,5.36-.48.5-13.31,1.02-12.68-2.56,5.06-19.28,10.83-38.45,18.56-56.81,15.56-36.96,42.43-78.99,72.61-105.6,8.39-7.4,29.47-19.45,34.18-27.34,2.25-3.76,3.04-9.23,6.13-12.67,5.1-5.67,23.7-3.52,31.35-3.95,57.27-3.23,114.56-4.68,171.85-7.43,27.61-1.32,56.26-4.64,83.71-5.4,4.78-.13,11.42-.78,15.38,1.69,5.02,3.14,6.56,8.32,4.37,13.82-2,5.01-24.83,19.78-30.85,25.36-34.45,31.95-48.55,81.48-22.7,123.51,25.99,42.25,64.49,33.92,107,32.93,47.83-1.11,100.32,7.12,127.66-39.94,4.85-8.35,7.44-18.29,12.08-26.1,2.8-4.7,13.49,4.53,13.42,5.93-17.09,38.09-33.27,97.18-82.06,103.64-40.46,5.36-94.1.23-135.72-.04-35.04-.23-70.08.17-105.12,0-4.88-.02-9.94,1.25-15.17-.11l-5.47-15.74c8.36-.88,19,1.2,27.05,0Z"/>
      <path class="cls-5" d="M186.57,240.97c9.6-2.15,27.52,1.39,37.98,1.89,14.74.71,29.86,1.8,44.5,2.18,25.51.65,56.47-3.48,80.65-1.1,25.26,2.49,56.59,19.72,79.59-1.05,23.43,2.17,52.45-3.02,75.2.07,18.2,2.47,16.28,26.06,15.53,39.74-.4,7.15.01,16.16-7.46,19.06-4.84,1.88-16.96,2.19-22.84,2.62-17.95,1.31-36.15,1.12-54.13,2.09-79.3,4.25-158.88,8.35-238.57,10.59-5.95-1.11-7.03-5.62-8.55-10.54-3.8-12.29-7.98-35.57-8.87-48.41-.44-6.34-.97-15.36,6.98-17.14Z"/>
      <path class="cls-1" d="M148.68,370.17c-15.17,17.39-30.55,34.9-41.89,55.16-2.53,2.25-8.67,1.77-8.05-2.64,6.91-16.69,15.6-32.99,24.46-48.84,4.28-4.6,19.34-3.43,25.48-3.68Z"/>
      <path class="cls-5" d="M118.98,372.29l-24.49,50.81c-1.05.9-9.88-1.41-10.37-2.17s-.38-16.12-.15-18.41c.95-9.08,5.02-5.99,9.39-10.76,3.66-4,4.69-13.11,7.61-15.73,2.06-1.86,16.59-4.99,18-3.73Z"/>
      <g>
        <path class="cls-4" d="M478.58,134.66c-20.36,3.29-53.58,12.33-63.67,32.33-11.15,22.09,5.82,38.37,3.24,60.52-.71,6.12-6.44,9.4-12.22,10.06-21.77,2.48-44.95-7.78-66.59-9.79-2.61-.94-11.06-18.62-12.62-22.39-41.86-100.95,104.56-166.42,151.87-70.73ZM389.16,196.52c-6.66-5.06-14.96-.66-13.29,7.38.63,3.01,3.36,4.08,4.51,6.16,1.92,3.46,1.08,5.81,4.82,8.97,11.91,10.05,23.79-8.54,13.31-16.49-2.63-2-4.91-1.53-6.9-2.67-1.51-.86-1.65-2.73-2.46-3.34Z"/>
        <path class="cls-1" d="M483.89,137.85c-.13,2.08.74,5.59-1.03,6.92s-16.6,3.81-20.41,5.05c-9.59,3.1-30.26,11.06-35.66,19.5-12.98,20.27,13.73,45.94.51,67.34-10.73,17.38-39.89,11.27-56.94,7.84-4.89-.98-26.22-6.02-28.47-8.66-1.06-1.25-2.48-3.87.33-3.53,14.64,1.77,30.16,7.17,44.91,9.21,8.47,1.17,20.25,2.45,27.77-2.41,18.38-11.88.23-40.1-.03-56.18-.47-29.62,45.94-42,69.03-45.08Z"/>
        <path class="cls-2" d="M389.16,196.52c.82.62.95,2.48,2.46,3.34,1.99,1.14,4.26.67,6.9,2.67,10.48,7.96-1.4,26.55-13.31,16.49-3.74-3.16-2.91-5.51-4.82-8.97-1.15-2.08-3.89-3.15-4.51-6.16-1.67-8.03,6.62-12.44,13.29-7.38ZM382.76,198.47c-4.86,1.24-3.06,11.15,1.99,5.19,2.33-2.74,1.84-6.17-1.99-5.19ZM398.27,210.85c0-3.44-2.79-6.22-6.22-6.22s-6.22,2.79-6.22,6.22,2.79,6.22,6.22,6.22,6.22-2.79,6.22-6.22Z"/>
        <circle class="cls-1" cx="392.05" cy="210.85" r="6.22"/>
        <path class="cls-1" d="M382.76,198.47c3.84-.98,4.32,2.45,1.99,5.19-5.06,5.95-6.86-3.96-1.99-5.19Z"/>
      </g>
      <g>
        <path class="cls-4" d="M210.21,672.49c-57.12-10.28-93.17-65.08-89.09-121.45.17-2.4,2.14-16.46,3.7-16.46h37.66c-21.8,58.97,29.99,118.47,91.77,99.73,42.41-12.86,62.77-59.89,47.19-100.79h38.19c17.43,61.72-24.99,130.27-89.11,138.96-12.24,1.66-25.97,1.77-38.19,0-.67-.1-1.47.12-2.12,0Z"/>
        <path class="cls-1" d="M193.97,534.79l76.71.32c29.53,39.81-14.58,93.11-59.81,71.48-26.27-12.57-36.49-49.13-16.9-71.8Z"/>
        <path class="cls-1" d="M166.72,534.58h21.22c-14.25,21.74-10.2,51.58,9.53,68.43,22.4,19.14,57.42,16.28,75.77-7,14.68-18.63,14.41-42.44,2.74-62.5h19.62c21.9,43.93-10.93,97.07-59.35,99.76-45.35,2.53-80.94-37.19-73.48-81.97.97-5.83,3.5-10.92,3.95-16.73Z"/>
      </g>
    </g>
    <g>
      <path class="cls-5" d="M729.99,186.64c12.89,50.67,44.56,100.96,49.85,153.3,4.42,43.76-17.05,90.44-36.56,128.89-16.46,32.44-36.83,71-73.74,82.71l12.21-12.71c23.91-27.38,54.72-101.8,63.86-137.69,20.13-79.04-16.34-106.97-27.01-175-1.84-11.74-3.09-35.59,11.39-39.51Z"/>
      <path class="cls-4" d="M715.14,267.26c7.35,25.73,19.59,51.88,21.28,78.98,2.03,32.79-7.85,64.36-20.76,93.95-9.37-5.68-22.65-13.56-26.79-24.13-6.6-16.87-15.44-76.07-16.21-95.18-1.18-29.39,16.84-44.5,42.47-53.62Z"/>
      <path class="cls-5" d="M745.91,161.19c-8.74-.18-28.76-7.57-31.61,5-.97,4.28,1.56,8.12.68,11.2-.39,1.35-5.56,6.14-7.07,8.91-1.36,2.5-1.83,6.66-3.31,8.36-1.63,1.87-16.99,7.49-19.53,6.91-2.11-.49-13.59-35.44-16.59-39.93-.33-4.75,4.79-6.44,5.88-9.94,2.25-7.24-.3-16.34-8.02-18.63-.45-2.53,1.17-1.25,2.6-1.6,11.31-2.77,25.09-.83,21.58,14.13-.39,1.64-4.23,5.89-2.96,7.1,2.94,2.79,7.15-6.14,7.45-8.99,1.52-14.65-10.94-16.51-22.3-18.05,8.4-4.74,16.54-8.97,23.85-15.38,3.14.67.84,17.9,5.3,16.96,4.71-.99-2.12-19.24,2.05-24.48,2.6-3.26,17.47-11.45,21.85-13.16,3.36-1.31,14.66-4.95,17.59-4.74.97.07,2.55.88,2.55,1.54v74.79Z"/>
      <path class="cls-1" d="M632.93,553.68c39.77-4.47,59.55-48.13,73.91-79.9,23.73-52.48,43.84-100.85,28.4-159.25-8.03-30.36-47.81-111.84-16.38-135.3,5.68-4.24,13.91-3.85,9.56,3.2-1.39,2.25-8.92,4.23-12,11.34-13.13,30.33,23.19,101.5,29.17,135.87,9.37,53.9-16.12,112.89-39.09,160.78-12.01,25.03-37.81,70.69-70.39,70.69h-250.35c-3.39,0-2.25-7.43,0-7.43h247.16Z"/>
      <path class="cls-4" d="M738.48,198.31c.35.59,1.76,1.42,2.69,3.12,4.54,8.34,8.94,17.61,13.08,26.21,10.27,21.35,31.96,79.37,47.33,92.69,2.8,2.43,13,7.79,13.82,9.51,1.13,2.37,1.03,11.87,2.06,15.97,3.02,12.02,11.08,20.39,17.62,30.12l-61.07,35.6,6.38-22.26c15.31-64.87-18.14-120.01-38.75-178.74-1.42-4.05-1.93-8.7-3.17-12.22Z"/>
      <rect class="cls-1" x="749.09" y="84.81" width="13.79" height="76.38"/>
      <path class="cls-1" d="M661.94,5.45c.39.23,3.72,6.8,4.17,7.99,5.98,15.82,5.53,39.51-6.65,52.25-1.82,0-3.32-10.29-3.58-12.31-1.51-12.18-1.44-30.81,1.62-42.66.69-2.69,1.01-7.27,4.44-5.27Z"/>
      <path class="cls-1" d="M639.84,162.25c2.27-6.94-.15-12.41-4.25-18.02,9.14-.73,29.13-13.43,34.86-2.53,7.64,14.51-22.82,16.23-30.61,20.55Z"/>
      <path class="cls-5" d="M703.48,224.3c1.29,12.2,7.96,26.34,9.45,38.6-1.26.22-2.88,1.65-4.18.74-2.57-1.79-16.88-46.67-19.13-53.18.07-6.07,9.35-8.01,13.86-10.04.58,7.66-.79,16.35,0,23.87Z"/>
      <path class="cls-1" d="M766.06,154.82v-63.65c1.62.58,2.89,3.74,3.73,5.29,9.19,16.92,8.39,43.07-3.73,58.36Z"/>
      <path class="cls-1" d="M835.01,365.91c-2.22,2.59-9.15-10.77-9.72-12.01-2.98-6.5-5.27-13.59-5.11-20.87,10.81,6.57,14.83,20.85,14.83,32.88Z"/>
      <path class="cls-1" d="M623.19,148.78c7.02-9.71,20.96,10.03,9.2,15.03-9.03,3.84-13.5-9.06-9.2-15.03Z"/>
      <path class="cls-6" d="M738.48,198.31c-.11-.31-3.27-1.78-2.11-4.24,2.47.23,1.6,3.39,2.11,4.24Z"/>
      <path class="cls-5" d="M667.94,551.56c.69.35.69.71,0,1.06v-1.06Z"/>
      <g>
        <g>
          <path class="cls-5" d="M732.23,540.84c-1.36-13.32,4.01-26.25,8.35-38.63,17.3-49.32,45.49-97.47,97.85-114.3,51.27-16.48,117.12-.07,145.94,47.7,1.24,2.06,8.45,15.84,8.56,16.96.34,3.63-11.6,5.17-14.33,5.5-41.74,5.09-82.85-2.5-122.41,17.62-36.54,18.58-57.74,54.44-99.66,63.71-7.78,1.72-16.59,3.78-24.32,1.44Z"/>
          <path class="cls-3" d="M803.72,398.8c.69.35.69.71,0,1.06v-1.06Z"/>
        </g>
        <g>
          <path class="cls-4" d="M900.78,672.49c-11.5,1.66-30.04,2.21-41.37,0-6.68-1.3-16.63-5.41-22.99-8.3-47.89-21.76-73.34-72.92-64.01-124.62,34.44-14.24,55.88-46.78,89.81-62.12,19.13-8.65,42.48-12.31,63.44-12.93,22.2-.65,43.74,24.91,53.81,42.83,37.39,66.53-2.62,154.14-78.68,165.13ZM957,562.8c0-41.28-33.47-74.75-74.75-74.75s-74.75,33.47-74.75,74.75,33.47,74.75,74.75,74.75,74.75-33.47,74.75-74.75Z"/>
          <path class="cls-2" d="M957,562.8c0,41.28-33.47,74.75-74.75,74.75s-74.75-33.47-74.75-74.75,33.47-74.75,74.75-74.75,74.75,33.47,74.75,74.75ZM952.5,562.85c0-38.79-31.45-70.24-70.24-70.24s-70.24,31.45-70.24,70.24,31.45,70.24,70.24,70.24,70.24-31.45,70.24-70.24Z"/>
          <path class="cls-1" d="M952.5,562.85c0,38.79-31.45,70.24-70.24,70.24s-70.24-31.45-70.24-70.24,31.45-70.24,70.24-70.24,70.24,31.45,70.24,70.24ZM934.84,562.86c0-29.07-23.57-52.63-52.63-52.63s-52.63,23.57-52.63,52.63,23.57,52.63,52.63,52.63,52.63-23.57,52.63-52.63Z"/>
          <path class="cls-2" d="M934.84,562.86c0,29.07-23.57,52.63-52.63,52.63s-52.63-23.57-52.63-52.63,23.57-52.63,52.63-52.63,52.63,23.57,52.63,52.63ZM930.37,562.91c0-26.58-21.55-48.13-48.13-48.13s-48.13,21.55-48.13,48.13,21.55,48.13,48.13,48.13,48.13-21.55,48.13-48.13Z"/>
          <circle class="cls-1" cx="882.24" cy="562.91" r="48.13"/>
        </g>
      </g>
    </g>
  </g>
</svg>